<svg xmlns="http://www.w3.org/2000/svg" width="600" height="450" viewBox="212 290 600 450">
  <!-- Camera body - medium gray (#888888) -->
  <!-- Main camera body rectangle -->
  <rect x="262" y="390" width="500" height="340" rx="35" ry="35" fill="#888888"/>

  <!-- Viewfinder hump on top - overlaps with body by 1px to eliminate gap -->
  <path d="M 382 391 L 407 330 Q 410 325 420 325 L 604 325 Q 614 325 617 330 L 642 391 Z" fill="#888888"/>

  <!-- Lens mount ring - outer circle (dark gray #555555) -->
  <circle cx="512" cy="560" r="160" fill="#555555"/>

  <!-- Inner circle - dark gray background for lens area (#333333) -->
  <circle cx="512" cy="560" r="140" fill="#333333"/>

  <!-- Aperture blades in Jellyfin blue - centered at 512,560 and scaled up -->
  <g transform="translate(512, 560) scale(8.2) translate(-16, -16)">
    <path fill="#00A4DC" d="M16 1.25c-8.146 0-14.75 6.604-14.75 14.75s6.604 14.75 14.75 14.75c8.146 0 14.75-6.604 14.75-14.75v0c-0.010-8.142-6.608-14.74-14.749-14.75h-0.001zM18.453 20.25h-4.907l-2.454-4.25 2.454-4.25h4.923l2.439 4.248zM20.198 11.75h8.34c0.451 1.272 0.712 2.74 0.712 4.268 0 2.788-0.868 5.374-2.349 7.501l0.028-0.043zM27.919 10.25h-13.506l4.181-7.242c4.137 0.858 7.512 3.548 9.29 7.164l0.035 0.078zM16 2.75c0.331 0 0.656 0.026 0.982 0.050l-6.755 11.701-4.172-7.226c2.433-2.777 5.985-4.522 9.945-4.524h0zM5.056 8.544l6.758 11.706h-8.353c-0.451-1.272-0.712-2.739-0.712-4.268 0-2.78 0.863-5.358 2.335-7.482l-0.029 0.044zM4.081 21.75h13.506l-4.18 7.242c-4.138-0.858-7.513-3.548-9.291-7.164l-0.035-0.078zM16 29.25c-0.331 0-0.656-0.026-0.982-0.050l6.754-11.697 4.157 7.241c-2.432 2.766-5.977 4.503-9.929 4.506h-0z"/>
  </g>
</svg>
